<svg width="1512" height="982" viewBox="0 0 1512 982" fill="none" xmlns="http://www.w3.org/2000/svg">
<g clip-path="url(#clip0_129_447)">
<g opacity="0.3">
<mask id="path-1-inside-1_129_447" fill="white">
<path d="M713.153 334.163L863.705 312.329L868.73 311.847L873.74 311.857L878.706 312.327L883.604 313.248L888.404 314.598L893.078 316.352L897.594 318.5L900.51 320.137L903.334 321.937L907.384 324.917L911.184 328.223L914.706 331.834L917.922 335.737L920.804 339.906L923.327 344.321L925.456 348.969L926.643 352.189L927.638 355.497L967.86 506.049L968.95 511.074L969.54 516.031L969.644 520.894L969.277 525.636L968.456 530.239L967.197 534.669L965.517 538.9L964.174 541.602L962.651 544.198L960.053 547.871L957.09 551.265L953.772 554.345L950.123 557.095L946.156 559.475L941.889 561.474L937.337 563.054L934.149 563.867L930.849 564.476L779.869 587.184L774.8 587.691L769.742 587.712L764.729 587.255L759.784 586.347L754.94 585L750.224 583.241L745.662 581.087L742.722 579.441L739.874 577.632L735.788 574.627L731.961 571.29L728.41 567.648L725.175 563.708L722.276 559.498L719.745 555.034L717.61 550.334L716.419 547.084L715.43 543.739L675.632 392.318L674.563 387.289L674 382.333L673.928 377.472L674.327 372.734L675.181 368.143L676.475 363.729L678.193 359.509L679.56 356.82L681.108 354.238L683.741 350.581L686.739 347.213L690.088 344.158L693.77 341.434L697.767 339.08L702.062 337.107L706.636 335.55C706.636 335.55 709.836 334.757 713.153 334.163Z"/>
<path d="M682.841 311.884L869.352 284.933L875.572 284.347L881.773 284.355L887.925 284.946L893.986 286.086L899.927 287.757L905.711 289.931L911.304 292.592L914.912 294.62L918.407 296.843L923.417 300.535L928.122 304.63L932.482 309.1L936.467 313.928L940.036 319.085L943.158 324.554L945.798 330.306L947.268 334.291L948.502 338.385L998.387 524.828L999.745 531.054L1000.48 537.195L1000.61 543.223L1000.16 549.104L999.148 554.806L997.594 560.296L995.517 565.548L993.855 568.898L991.972 572.113L988.756 576.671L985.088 580.88L980.984 584.705L976.465 588.11L971.554 591.071L966.269 593.547L960.627 595.517L956.68 596.524L952.591 597.282L765.426 625.567L759.139 626.206L752.868 626.232L746.645 625.668L740.51 624.546L734.504 622.881L728.651 620.701L722.994 618.03L719.347 615.986L715.809 613.744L710.743 610.018L705.995 605.881L701.593 601.356L697.576 596.471L693.982 591.246L690.847 585.708L688.203 579.88L686.728 575.842L685.502 571.693L636.266 383.917L634.943 377.684L634.251 371.545L634.165 365.522L634.667 359.651L635.729 353.961L637.341 348.488L639.471 343.263L641.172 339.932L643.094 336.733L646.366 332.21L650.085 328.037L654.241 324.252L658.806 320.883L663.765 317.963L669.092 315.524L674.766 313.602C674.766 313.602 678.734 312.619 682.841 311.884Z"/>
<path d="M652.585 289.644L874.983 257.63L882.393 256.931L889.782 256.948L897.11 257.652L904.331 259.015L911.409 261.009L918.302 263.604L924.966 266.773L929.261 269.189L933.428 271.839L939.401 276.238L945.007 281.113L950.201 286.443L954.95 292.192L959.2 298.339L962.925 304.852L966.069 311.706L967.827 316.451L969.298 321.327L1028.85 543.568L1030.47 550.993L1031.36 558.321L1031.51 565.513L1030.98 572.528L1029.78 579.33L1027.93 585.885L1025.46 592.147L1023.48 596.145L1021.24 599.988L1017.41 605.431L1013.04 610.449L1008.15 615.014L1002.77 619.084L996.916 622.62L990.617 625.585L983.89 627.932L979.186 629.14L974.308 630.047L750.985 663.964L743.475 664.73L735.984 664.768L728.555 664.099L721.231 662.759L714.052 660.779L707.068 658.177L700.311 654.989L695.954 652.552L691.738 649.875L685.689 645.428L680.018 640.487L674.762 635.088L669.971 629.253L665.682 623.014L661.939 616.396L658.784 609.437L657.027 604.616L655.563 599.658L596.933 375.519L595.361 368.09L594.538 360.765L594.443 353.579L595.044 346.579L596.324 339.794L598.25 333.27L600.798 327.039L602.833 323.067L605.124 319.251L609.034 313.857L613.485 308.887L618.447 304.372L623.897 300.361L629.814 296.882L636.173 293.978L642.946 291.685C642.946 291.685 647.683 290.516 652.585 289.644Z"/>
<path d="M622.376 267.441L880.594 230.411L889.194 229.604L897.767 229.629L906.266 230.447L914.642 232.031L922.856 234.347L930.85 237.36L938.581 241.038L943.568 243.842L948.397 246.921L955.329 252.022L961.83 257.679L967.861 263.859L973.365 270.531L978.305 277.661L982.623 285.216L986.276 293.167L988.316 298.672L990.025 304.33L1059.26 562.27L1061.14 570.893L1062.17 579.404L1062.36 587.755L1061.75 595.904L1060.36 603.81L1058.22 611.425L1055.36 618.702L1053.06 623.347L1050.47 627.813L1046.02 634.135L1040.95 639.977L1035.28 645.285L1029.03 650.015L1022.24 654.13L1014.93 657.575L1007.12 660.311L1001.66 661.717L996.001 662.777L736.533 702.371L727.801 703.27L719.093 703.313L710.455 702.546L701.941 700.992L693.595 698.691L685.471 695.674L677.618 691.968L672.555 689.137L667.648 686.023L660.619 680.854L654.021 675.111L647.915 668.833L642.347 662.051L637.362 654.794L633.015 647.101L629.35 639.005L627.309 633.397L625.613 627.638L557.629 367.134L555.812 358.503L554.863 349.991L554.756 341.652L555.464 333.517L556.953 325.643L559.199 318.068L562.172 310.829L564.537 306.221L567.208 301.791L571.756 295.531L576.93 289.76L582.7 284.524L589.038 279.867L595.918 275.836L603.306 272.466L611.178 269.808C611.178 269.808 616.684 268.453 622.376 267.441Z"/>
<path d="M592.223 245.277L886.189 203.276L895.971 202.366L905.723 202.397L915.39 203.334L924.92 205.138L934.262 207.777L943.355 211.204L952.149 215.392L957.823 218.585L963.318 222.083L971.199 227.889L978.597 234.327L985.459 241.358L991.725 248.942L997.342 257.054L1002.26 265.645L1006.42 274.688L1008.74 280.949L1010.69 287.385L1089.6 580.929L1091.75 590.75L1092.92 600.445L1093.15 609.954L1092.46 619.237L1090.88 628.243L1088.45 636.916L1085.2 645.212L1082.59 650.504L1079.64 655.593L1074.59 662.798L1068.82 669.454L1062.37 675.505L1055.26 680.903L1047.53 685.592L1039.21 689.526L1030.33 692.646L1024.11 694.254L1017.67 695.466L722.083 740.792L712.129 741.818L702.196 741.878L692.352 741.007L682.642 739.244L673.127 736.622L663.867 733.185L654.911 728.967L649.141 725.738L643.548 722.191L635.535 716.3L628.02 709.753L621.059 702.597L614.712 694.861L609.031 686.59L604.076 677.818L599.904 668.585L597.585 662.193L595.651 655.625L518.361 358.752L516.296 348.924L515.223 339.234L515.11 329.731L515.923 320.472L517.63 311.505L520.195 302.879L523.586 294.644L526.29 289.393L529.336 284.354L534.523 277.228L540.424 270.661L547.006 264.702L554.23 259.405L562.072 254.817L570.493 250.986L579.466 247.966C579.466 247.966 585.735 246.422 592.223 245.277Z"/>
<path d="M562.123 223.153L891.767 176.229L902.726 175.212L913.654 175.254L924.484 176.307L935.165 178.336L945.63 181.295L955.819 185.141L965.673 189.83L972.025 193.409L978.188 197.334L987.017 203.841L995.309 211.052L1003 218.93L1010.02 227.428L1016.31 236.512L1021.83 246.144L1026.49 256.271L1029.09 263.288L1031.28 270.492L1119.87 599.555L1122.29 610.569L1123.62 621.442L1123.87 632.115L1123.11 642.53L1121.35 652.631L1118.63 662.368L1114.99 671.673L1112.07 677.617L1108.76 683.324L1103.11 691.416L1096.65 698.889L1089.42 705.684L1081.45 711.745L1072.79 717.016L1063.46 721.434L1053.5 724.942L1046.53 726.75L1039.31 728.115L707.625 779.218L696.445 780.382L685.297 780.456L674.24 779.487L663.336 777.511L652.65 774.574L642.249 770.716L632.193 765.982L625.713 762.359L619.433 758.379L610.436 751.763L601.999 744.417L594.187 736.377L587.062 727.691L580.689 718.401L575.126 708.55L570.447 698.18L567.845 691.001L565.678 683.624L479.122 350.378L476.812 339.353L475.618 328.479L475.502 317.826L476.424 307.44L478.345 297.384L481.234 287.71L485.048 278.472L488.086 272.588L491.512 266.94L497.343 258.947L503.972 251.588L511.363 244.912L519.476 238.972L528.277 233.833L537.736 229.54L547.804 226.16C547.804 226.16 554.839 224.435 562.123 223.153Z"/>
<path d="M532.072 201.061L897.325 149.266L909.458 148.148L921.556 148.201L933.55 149.374L945.376 151.621L956.96 154.901L968.243 159.161L979.151 164.357L986.185 168.321L993.004 172.667L1002.79 179.868L1011.96 187.853L1020.48 196.575L1028.25 205.987L1035.23 216.044L1041.33 226.703L1046.49 237.915L1049.38 245.679L1051.8 253.661L1150.09 618.138L1152.77 630.345L1154.25 642.396L1154.54 654.227L1153.7 665.772L1151.76 676.975L1148.76 687.771L1144.73 698.089L1141.5 704.68L1137.84 711.014L1131.58 719.988L1124.43 728.278L1116.43 735.82L1107.61 742.543L1098.01 748.393L1087.68 753.297L1076.65 757.198L1068.93 759.207L1060.92 760.724L693.165 817.659L680.76 818.959L668.387 819.049L656.116 817.979L644.019 815.794L632.167 812.544L620.625 808.267L609.466 803.017L602.279 799L595.309 794.586L585.327 787.246L575.968 779.096L567.3 770.173L559.397 760.537L552.328 750.229L546.165 739.298L540.975 727.791L538.093 719.819L535.693 711.633L439.915 342.011L437.366 329.788L436.048 317.741L435.928 305.928L436.959 294.421L439.103 283.277L442.317 272.555L446.558 262.323L449.931 255.802L453.733 249.545L460.208 240.694L467.565 232.542L475.768 225.144L484.772 218.572L494.537 212.88L505.025 208.131L516.193 204.385C516.193 204.385 523.997 202.478 532.072 201.061Z"/>
<path d="M502.07 179.013L902.867 122.391L916.173 121.172L929.438 121.232L942.586 122.523L955.548 124.993L968.255 128.593L980.621 133.27L992.586 138.968L1000.3 143.317L1007.77 148.08L1018.5 155.978L1028.56 164.737L1037.9 174.298L1046.42 184.616L1054.07 195.641L1060.77 207.328L1066.43 219.62L1069.61 228.131L1072.26 236.877L1180.24 636.683L1183.19 650.083L1184.81 663.313L1185.15 676.297L1184.23 688.975L1182.11 701.276L1178.83 713.125L1174.42 724.462L1170.88 731.697L1166.87 738.654L1160.01 748.514L1152.17 757.621L1143.4 765.909L1133.73 773.299L1123.2 779.73L1111.87 785.126L1099.77 789.419L1091.29 791.633L1082.52 793.301L678.699 856.118L665.069 857.556L651.472 857.666L637.993 856.497L624.698 854.104L611.67 850.534L598.989 845.846L586.73 840.08L578.828 835.67L571.175 830.818L560.206 822.757L549.919 813.8L540.401 803.999L531.719 793.408L523.958 782.081L517.19 770.066L511.497 757.416L508.332 748.658L505.702 739.661L400.742 333.661L397.949 320.241L396.516 307.018L396.397 294.054L397.543 281.425L399.906 269.193L403.444 257.429L408.109 246.203L411.827 239.047L416.004 232.182L423.124 222.473L431.213 213.527L440.226 205.417L450.12 198.211L460.849 191.968L472.371 186.761L484.636 182.659C484.636 182.659 493.205 180.571 502.072 179.022L502.07 179.013Z"/>
<path d="M472.123 157.001L908.393 95.5993L922.863 94.2764L937.29 94.3498L951.592 95.7621L965.692 98.4557L979.508 102.373L992.964 107.461L1005.97 113.668L1014.36 118.394L1022.49 123.577L1034.16 132.173L1045.1 141.693L1055.26 152.094L1064.54 163.318L1072.86 175.307L1080.14 188.014L1086.31 201.385L1089.76 210.64L1092.66 220.154L1210.33 655.19L1213.55 669.783L1215.32 684.186L1215.7 698.328L1214.71 712.134L1212.41 725.528L1208.84 738.439L1204.06 750.789L1200.21 758.671L1195.85 766.249L1188.39 776.99L1179.87 786.918L1170.33 795.947L1159.8 804.008L1148.36 811.019L1136.02 816.903L1122.85 821.587L1113.64 824.001L1104.07 825.826L664.228 894.569L649.372 896.144L634.552 896.275L619.855 895.013L605.364 892.412L591.164 888.531L577.338 883.423L563.976 877.145L555.364 872.338L547.02 867.054L535.066 858.268L523.857 848.507L513.483 837.823L504.027 826.281L495.57 813.931L488.201 800.831L481.996 787.041L478.556 777.494L475.692 767.679L361.599 325.301L358.571 310.687L357.018 296.284L356.897 282.174L358.157 268.423L360.744 255.108L364.612 242.299L369.705 230.079L373.758 222.295L378.32 214.823L386.085 204.256L394.903 194.523L404.73 185.703L415.519 177.859L427.213 171.072L439.765 165.414L453.126 160.951C453.126 160.951 462.465 158.682 472.123 157.001Z"/>
<path d="M442.228 135.024L913.897 68.8878L929.532 67.4697L945.117 67.5566L960.57 69.0914L975.802 72.0048L990.728 76.2403L1005.26 81.7417L1019.32 88.4474L1028.38 93.5598L1037.16 99.1602L1049.76 108.445L1061.59 118.732L1072.56 129.968L1082.59 142.088L1091.58 155.043L1099.46 168.769L1106.12 183.207L1109.85 193.204L1112.98 203.479L1240.35 673.659L1243.85 689.44L1245.77 705.017L1246.19 720.316L1245.13 735.249L1242.65 749.741L1238.81 763.71L1233.64 777.071L1229.49 785.603L1224.79 793.807L1216.73 805.434L1207.53 816.177L1197.22 825.956L1185.85 834.683L1173.48 842.275L1160.15 848.649L1145.92 853.724L1135.95 856.342L1125.61 858.323L649.756 933.047L633.668 934.765L617.624 934.917L601.709 933.558L586.022 930.752L570.647 926.557L555.681 921.034L541.215 914.244L531.892 909.044L522.862 903.326L509.92 893.815L497.788 883.246L486.559 871.684L476.323 859.184L467.173 845.81L459.2 831.626L452.492 816.694L448.768 806.355L445.674 795.729L322.492 316.962L319.225 301.158L317.558 285.585L317.443 270.322L318.816 255.449L321.627 241.05L325.826 227.206L331.352 213.996L335.741 205.578L340.688 197.501L349.099 186.08L358.651 175.562L369.291 166.029L380.967 157.557L393.626 150.227L407.213 144.111L421.675 139.296C421.675 139.296 431.775 136.846 442.229 135.033L442.228 135.024Z"/>
<path d="M412.379 113.084L919.385 42.2641L936.182 40.7516L952.921 40.8529L969.518 42.5022L985.879 45.6404L1001.91 50.1947L1017.52 56.1093L1032.61 63.3157L1042.35 68.8058L1051.78 74.8233L1065.32 84.7973L1078.02 95.8462L1089.81 107.914L1100.58 120.933L1110.24 134.843L1118.7 149.58L1125.87 165.09L1129.88 175.831L1133.25 186.86L1270.32 692.094L1274.08 709.059L1276.16 725.809L1276.61 742.257L1275.49 758.318L1272.84 773.901L1268.72 788.927L1263.18 803.301L1258.72 812.482L1253.67 821.308L1245.03 833.819L1235.14 845.382L1224.06 855.906L1211.85 865.302L1198.56 873.479L1184.24 880.347L1168.95 885.817L1158.23 888.64L1147.13 890.775L635.277 971.527L617.964 973.391L600.688 973.564L583.561 972.112L566.672 969.099L550.121 964.588L534.011 958.651L518.441 951.345L508.407 945.747L498.681 939.593L484.754 929.357L471.696 917.986L459.615 905.536L448.6 892.081L438.757 877.683L430.179 862.411L422.967 846.337L418.964 835.205L415.64 823.765L283.412 308.605L279.907 291.611L278.129 274.861L278.016 258.452L279.51 242.464L282.549 226.986L287.079 212.102L293.033 197.902L297.768 188.859L303.096 180.176L312.152 167.905L322.438 156.603L333.898 146.36L346.466 137.259L360.089 129.381L374.706 122.818L390.267 117.651C390.267 117.651 401.137 115.024 412.378 113.075L412.379 113.084Z"/>
<path d="M382.583 91.1833L924.861 15.7233L942.81 14.1135L960.702 14.2291L978.437 16.0032L995.921 19.3628L1013.05 24.2365L1029.73 30.5608L1045.87 38.2679L1056.27 44.1357L1066.35 50.5668L1080.82 61.2269L1094.4 73.0385L1107 85.9337L1118.51 99.8463L1128.84 114.709L1137.89 130.461L1145.55 147.034L1149.84 158.508L1153.44 170.298L1300.22 710.486L1304.26 728.634L1306.49 746.557L1306.98 764.158L1305.79 781.346L1302.97 798.026L1298.57 814.109L1292.66 829.498L1287.9 839.325L1282.52 848.771L1273.27 862.167L1262.71 874.549L1250.88 885.817L1237.82 895.883L1223.61 904.644L1208.3 912.006L1191.95 917.87L1180.49 920.901L1168.61 923.197L620.796 1010.02L602.25 1012.03L583.75 1012.23L565.402 1010.69L547.312 1007.47L529.587 1002.65L512.332 996.296L495.655 988.479L484.906 982.489L474.494 975.901L459.578 964.941L445.597 952.762L432.66 939.429L420.87 925.015L410.33 909.595L401.152 893.238L393.436 876.016L389.157 864.092L385.602 851.833L244.369 300.281L240.63 282.097L238.74 264.18L238.633 246.623L240.246 229.521L243.515 212.963L248.376 197.044L254.768 181.856L259.843 172.179L265.552 162.9L275.263 149.774L286.284 137.692L298.555 126.744L312.018 117.014L326.608 108.602L342.26 101.586L358.918 96.0669C358.918 96.0669 370.549 93.26 382.583 91.1833Z"/>
<path d="M352.838 69.3231L930.315 -10.7376L949.412 -12.4395L968.455 -12.3044L987.327 -10.4099L1005.93 -6.83257L1024.16 -1.63507L1041.91 5.09967L1059.07 13.2995L1070.14 19.5466L1080.88 26.3905L1096.27 37.7366L1110.72 50.3074L1124.13 64.0262L1136.38 78.8285L1147.38 94.6427L1157.01 111.403L1165.17 129.038L1169.74 141.242L1173.57 153.787L1330.06 728.84L1334.37 748.176L1336.76 767.267L1337.3 786.02L1336.04 804.33L1333.05 822.103L1328.38 839.237L1322.1 855.637L1317.04 866.113L1311.3 876.185L1301.48 890.469L1290.24 903.67L1277.65 915.691L1263.76 926.424L1248.63 935.77L1232.33 943.626L1214.92 949.888L1202.72 953.127L1190.07 955.578L606.312 1048.53L586.534 1050.69L566.802 1050.91L547.238 1049.28L527.948 1045.86L509.042 1040.73L490.644 1033.96L472.858 1025.63L461.399 1019.25L450.295 1012.22L434.391 1000.54L419.482 987.55L405.689 973.33L393.12 957.961L381.891 941.512L372.111 924.067L363.887 905.699L359.333 892.982L355.548 879.908L205.354 291.957L201.385 272.582L199.385 253.498L199.29 234.796L201.023 216.58L204.522 198.946L209.718 181.991L216.544 165.817L221.965 155.519L228.056 145.634L238.418 131.662L250.174 118.804L263.264 107.147L277.62 96.7918L293.175 87.8406L309.859 80.3816L327.615 74.5106C327.615 74.5106 340.016 71.5265 352.838 69.3231Z"/>
<path d="M323.143 47.4942L935.754 -37.1105L955.999 -38.9047L976.182 -38.7572L996.186 -36.7415L1015.91 -32.9377L1035.23 -27.4235L1054.05 -20.2827L1072.24 -11.585L1083.98 -4.95934L1095.35 2.29958L1111.67 14.3274L1126.99 27.6486L1141.2 42.1919L1154.19 57.8838L1165.85 74.6457L1176.07 92.4086L1184.72 111.094L1189.57 124.032L1193.64 137.329L1359.84 747.155L1364.42 767.671L1366.97 787.93L1367.55 807.831L1366.23 827.267L1363.07 846.135L1358.13 864.326L1351.48 881.736L1346.12 892.857L1340.05 903.553L1329.64 918.721L1317.73 932.744L1304.38 945.514L1289.65 956.92L1273.61 966.853L1256.33 975.202L1237.86 981.862L1224.93 985.309L1211.51 987.923L591.821 1087.05L570.812 1089.36L549.853 1089.61L529.063 1087.89L508.572 1084.26L488.492 1078.82L468.944 1071.64L450.047 1062.8L437.876 1056.02L426.083 1048.56L409.189 1036.15L393.357 1022.36L378.708 1007.26L365.36 990.928L353.439 973.455L343.053 954.921L334.333 935.401L329.498 921.887L325.488 907.998L166.376 283.644L162.175 263.087L160.07 242.83L159.981 222.985L161.84 203.659L165.573 184.948L171.106 166.966L178.367 149.81L184.128 138.882L190.609 128.4L201.623 113.582L214.118 99.9427L228.024 87.5849L243.273 76.6097L259.794 67.1195L277.514 59.2122L296.368 52.9936C296.368 52.9936 309.531 49.8381 323.145 47.5029L323.143 47.4942Z"/>
<path d="M293.501 25.7054L941.171 -63.4035L962.565 -65.2898L983.884 -65.1249L1005.02 -62.9837L1025.85 -58.9605L1046.27 -53.1297L1066.14 -45.5769L1085.36 -36.3857L1097.76 -29.3843L1109.78 -21.7162L1127.01 -9.00948L1143.2 5.06659L1158.22 20.4299L1171.95 37.0035L1184.27 54.7139L1195.06 73.4755L1204.21 93.2148L1209.34 106.879L1213.64 120.921L1389.56 765.437L1394.41 787.132L1397.12 808.558L1397.74 829.606L1396.36 850.165L1393.04 870.124L1387.83 889.37L1380.81 907.791L1375.16 919.56L1368.74 930.877L1357.75 946.931L1345.17 961.772L1331.07 975.29L1315.51 987.368L1298.57 997.887L1280.3 1006.73L1260.78 1013.79L1247.1 1017.45L1232.92 1020.22L577.327 1125.58L555.081 1128.03L532.892 1128.32L510.886 1126.5L489.185 1122.68L467.925 1116.93L447.23 1109.33L427.229 1099.98L414.339 1092.81L401.854 1084.91L383.972 1071.78L367.212 1057.17L351.706 1041.18L337.583 1023.9L324.968 1005.4L313.985 985.768L304.756 965.103L299.645 950.791L295.409 936.082L127.423 275.317L122.997 253.574L120.783 232.153L120.708 211.168L122.691 190.731L126.659 170.949L132.528 151.935L140.228 133.796L146.34 122.246L153.203 111.167L164.868 95.5029L178.105 81.0917L192.831 68.0326L208.973 56.4373L226.459 46.4081L245.217 38.061L265.164 31.4956C265.164 31.4956 279.094 28.1637 293.5 25.701L293.501 25.7054Z"/>
<path d="M263.909 3.95219L946.576 -89.618L969.109 -91.5906L991.565 -91.4039L1013.83 -89.1443L1035.76 -84.8968L1057.26 -78.7485L1078.19 -70.788L1098.44 -61.1025L1111.5 -53.7262L1124.15 -45.6473L1142.31 -32.2617L1159.36 -17.4388L1175.18 -1.25899L1189.64 16.1963L1202.62 34.8465L1213.99 54.6024L1223.64 75.3913L1229.04 89.7809L1233.58 104.566L1419.21 783.68L1424.34 806.554L1427.21 829.147L1427.88 851.342L1426.44 873.023L1422.95 894.073L1417.48 914.374L1410.09 933.805L1404.14 946.218L1397.4 958.158L1385.82 975.096L1372.57 990.759L1357.72 1005.03L1341.33 1017.78L1323.48 1028.88L1304.23 1038.23L1283.66 1045.68L1269.25 1049.54L1254.31 1052.47L562.828 1164.1L539.347 1166.71L515.922 1167.03L492.692 1165.13L469.791 1161.11L447.348 1155.05L425.504 1147.04L404.395 1137.17L390.79 1129.61L377.615 1121.28L358.739 1107.42L341.056 1092.01L324.694 1075.13L309.795 1056.89L296.482 1037.35L284.897 1016.63L275.173 994.814L269.785 979.705L265.318 964.177L88.5051 267.016L83.8514 244.09L81.5339 221.506L81.4748 199.38L83.5833 177.832L87.7859 156.978L94.0007 136.935L102.136 117.818L108.594 105.646L115.849 93.9694L128.171 77.4676L142.143 62.2807L157.689 48.5203L174.729 36.3084L193.183 25.7489L212.973 16.9586L234.019 10.0456C234.019 10.0456 248.715 6.54157 263.909 3.95219Z"/>
<path d="M234.365 -17.7645L951.963 -115.749L975.632 -117.811L999.221 -117.602L1022.6 -115.219L1045.64 -110.747L1068.23 -104.285L1090.21 -95.916L1111.48 -85.7398L1125.19 -77.9913L1138.48 -69.5024L1157.55 -55.4415L1175.47 -39.8717L1192.08 -22.8754L1207.27 -4.54201L1220.91 15.0437L1232.87 35.7938L1243 57.6244L1248.68 72.7355L1253.46 88.2666L1448.81 801.885L1454.21 825.936L1457.23 849.694L1457.96 873.036L1456.46 895.838L1452.81 917.979L1447.07 939.334L1439.32 959.779L1433.08 972.839L1426 985.404L1413.85 1003.23L1399.94 1019.71L1384.34 1034.73L1367.12 1048.15L1348.36 1059.85L1328.14 1069.69L1306.53 1077.55L1291.38 1081.62L1275.67 1084.71L548.328 1202.67L523.61 1205.43L498.956 1205.78L474.501 1203.8L450.392 1199.58L426.77 1193.21L403.777 1184.79L381.552 1174.41L367.236 1166.45L353.365 1157.69L333.5 1143.11L314.89 1126.89L297.672 1109.12L281.993 1089.91L267.99 1069.35L255.807 1047.54L245.578 1024.57L239.915 1008.66L235.226 992.312L49.6196 258.718L44.7421 234.609L42.325 210.86L42.279 187.599L44.5177 164.943L48.9561 143.021L55.5121 121.95L64.0914 101.854L70.8963 89.0612L78.537 76.787L91.5167 59.4472L106.229 43.4881L122.597 29.0351L140.531 16.2031L159.952 5.11327L180.778 -4.11676L202.924 -11.3729C202.924 -11.3729 218.382 -15.0484 234.365 -17.7645Z"/>
<path d="M204.872 -39.441L957.334 -141.796L982.134 -143.948L1006.85 -143.72L1031.35 -141.208L1055.49 -136.516L1079.15 -129.734L1102.19 -120.961L1124.47 -110.293L1138.83 -102.173L1152.77 -93.2773L1172.75 -78.5418L1191.52 -62.2279L1208.93 -44.4187L1224.85 -25.2123L1239.15 -4.69473L1251.67 17.0462L1262.3 39.9133L1268.26 55.7493L1273.27 72.019L1478.34 820.052L1484.02 845.277L1487.21 870.197L1487.98 894.681L1486.43 918.604L1482.61 941.831L1476.61 964.236L1468.51 985.69L1461.97 999.398L1454.55 1012.59L1441.83 1031.3L1427.25 1048.6L1410.91 1064.37L1392.87 1078.47L1373.21 1090.76L1352.02 1101.1L1329.35 1109.36L1313.48 1113.64L1297 1116.9L533.822 1241.23L507.865 1244.15L481.975 1244.53L456.296 1242.46L430.983 1238.05L406.178 1231.38L382.032 1222.54L358.695 1211.66L343.665 1203.3L329.103 1194.1L308.244 1178.79L288.706 1161.76L270.631 1143.11L254.175 1122.93L239.479 1101.34L226.694 1078.43L215.968 1054.31L210.028 1037.6L205.111 1020.43L10.7624 250.428L5.66549 225.135L3.14521 200.227L3.11589 175.825L5.48981 152.066L10.1683 129.076L17.0663 106.981L26.0904 85.9097L33.2417 72.4952L41.2748 59.6316L54.9067 41.4503L70.3646 24.7225L87.5551 9.5769L106.387 -3.87166L126.776 -15.4874L148.631 -25.1556L171.875 -32.755C171.875 -32.755 188.096 -36.6018 204.872 -39.441Z"/>
<path d="M175.43 -61.082L962.688 -167.765L988.615 -170L1014.46 -169.748L1040.07 -167.116L1065.31 -162.202L1090.04 -155.106L1114.12 -145.927L1137.42 -134.767L1152.44 -126.275L1167 -116.973L1187.89 -101.565L1207.52 -84.5074L1225.72 -65.8948L1242.37 -45.8138L1257.32 -24.3644L1270.43 -1.64221L1281.54 22.2623L1287.77 38.8117L1293.02 55.8184L1507.82 838.179L1513.77 864.579L1517.12 890.662L1517.95 916.288L1516.33 941.327L1512.36 965.643L1506.1 989.103L1497.64 1011.57L1490.81 1025.92L1483.06 1039.73L1469.76 1059.33L1454.53 1077.46L1437.44 1093.98L1418.58 1108.75L1398.03 1121.63L1375.86 1132.47L1352.15 1141.14L1335.54 1145.63L1318.32 1149.05L519.31 1279.8L492.117 1282.88L464.989 1283.3L438.086 1281.15L411.564 1276.54L385.576 1269.56L360.278 1260.32L335.829 1248.92L320.079 1240.17L304.826 1230.54L282.979 1214.51L262.509 1196.67L243.582 1177.13L226.346 1155.99L210.96 1133.36L197.576 1109.36L186.345 1084.07L180.133 1066.57L174.994 1048.57L-28.0586 242.141L-33.3785 215.669L-35.9932 189.6L-36 164.065L-33.4959 139.199L-28.5767 115.145L-21.3314 92.0293L-11.8625 69.9835L-4.36407 55.9518L4.0607 42.4945L18.3549 23.4787L34.5543 5.98308L52.5624 -9.85432L72.2929 -23.9151L93.6493 -36.0612L116.542 -46.1647L140.882 -54.1022C140.882 -54.1022 157.869 -58.1212 175.434 -61.0827L175.43 -61.082Z"/>
</mask>
<path d="M713.153 334.163L863.705 312.329L868.73 311.847L873.74 311.857L878.706 312.327L883.604 313.248L888.404 314.598L893.078 316.352L897.594 318.5L900.51 320.137L903.334 321.937L907.384 324.917L911.184 328.223L914.706 331.834L917.922 335.737L920.804 339.906L923.327 344.321L925.456 348.969L926.643 352.189L927.638 355.497L967.86 506.049L968.95 511.074L969.54 516.031L969.644 520.894L969.277 525.636L968.456 530.239L967.197 534.669L965.517 538.9L964.174 541.602L962.651 544.198L960.053 547.871L957.09 551.265L953.772 554.345L950.123 557.095L946.156 559.475L941.889 561.474L937.337 563.054L934.149 563.867L930.849 564.476L779.869 587.184L774.8 587.691L769.742 587.712L764.729 587.255L759.784 586.347L754.94 585L750.224 583.241L745.662 581.087L742.722 579.441L739.874 577.632L735.788 574.627L731.961 571.29L728.41 567.648L725.175 563.708L722.276 559.498L719.745 555.034L717.61 550.334L716.419 547.084L715.43 543.739L675.632 392.318L674.563 387.289L674 382.333L673.928 377.472L674.327 372.734L675.181 368.143L676.475 363.729L678.193 359.509L679.56 356.82L681.108 354.238L683.741 350.581L686.739 347.213L690.088 344.158L693.77 341.434L697.767 339.08L702.062 337.107L706.636 335.55C706.636 335.55 709.836 334.757 713.153 334.163Z" stroke="url(#paint0_radial_129_447)" stroke-width="2" stroke-miterlimit="10" mask="url(#path-1-inside-1_129_447)"/>
<path d="M682.841 311.884L869.352 284.933L875.572 284.347L881.773 284.355L887.925 284.946L893.986 286.086L899.927 287.757L905.711 289.931L911.304 292.592L914.912 294.62L918.407 296.843L923.417 300.535L928.122 304.63L932.482 309.1L936.467 313.928L940.036 319.085L943.158 324.554L945.798 330.306L947.268 334.291L948.502 338.385L998.387 524.828L999.745 531.054L1000.48 537.195L1000.61 543.223L1000.16 549.104L999.148 554.806L997.594 560.296L995.517 565.548L993.855 568.898L991.972 572.113L988.756 576.671L985.088 580.88L980.984 584.705L976.465 588.11L971.554 591.071L966.269 593.547L960.627 595.517L956.68 596.524L952.591 597.282L765.426 625.567L759.139 626.206L752.868 626.232L746.645 625.668L740.51 624.546L734.504 622.881L728.651 620.701L722.994 618.03L719.347 615.986L715.809 613.744L710.743 610.018L705.995 605.881L701.593 601.356L697.576 596.471L693.982 591.246L690.847 585.708L688.203 579.88L686.728 575.842L685.502 571.693L636.266 383.917L634.943 377.684L634.251 371.545L634.165 365.522L634.667 359.651L635.729 353.961L637.341 348.488L639.471 343.263L641.172 339.932L643.094 336.733L646.366 332.21L650.085 328.037L654.241 324.252L658.806 320.883L663.765 317.963L669.092 315.524L674.766 313.602C674.766 313.602 678.734 312.619 682.841 311.884Z" stroke="url(#paint1_radial_129_447)" stroke-width="2" stroke-miterlimit="10" mask="url(#path-1-inside-1_129_447)"/>
<path d="M652.585 289.644L874.983 257.63L882.393 256.931L889.782 256.948L897.11 257.652L904.331 259.015L911.409 261.009L918.302 263.604L924.966 266.773L929.261 269.189L933.428 271.839L939.401 276.238L945.007 281.113L950.201 286.443L954.95 292.192L959.2 298.339L962.925 304.852L966.069 311.706L967.827 316.451L969.298 321.327L1028.85 543.568L1030.47 550.993L1031.36 558.321L1031.51 565.513L1030.98 572.528L1029.78 579.33L1027.93 585.885L1025.46 592.147L1023.48 596.145L1021.24 599.988L1017.41 605.431L1013.04 610.449L1008.15 615.014L1002.77 619.084L996.916 622.62L990.617 625.585L983.89 627.932L979.186 629.14L974.308 630.047L750.985 663.964L743.475 664.73L735.984 664.768L728.555 664.099L721.231 662.759L714.052 660.779L707.068 658.177L700.311 654.989L695.954 652.552L691.738 649.875L685.689 645.428L680.018 640.487L674.762 635.088L669.971 629.253L665.682 623.014L661.939 616.396L658.784 609.437L657.027 604.616L655.563 599.658L596.933 375.519L595.361 368.09L594.538 360.765L594.443 353.579L595.044 346.579L596.324 339.794L598.25 333.27L600.798 327.039L602.833 323.067L605.124 319.251L609.034 313.857L613.485 308.887L618.447 304.372L623.897 300.361L629.814 296.882L636.173 293.978L642.946 291.685C642.946 291.685 647.683 290.516 652.585 289.644Z" stroke="url(#paint2_radial_129_447)" stroke-width="2" stroke-miterlimit="10" mask="url(#path-1-inside-1_129_447)"/>
<path d="M622.376 267.441L880.594 230.411L889.194 229.604L897.767 229.629L906.266 230.447L914.642 232.031L922.856 234.347L930.85 237.36L938.581 241.038L943.568 243.842L948.397 246.921L955.329 252.022L961.83 257.679L967.861 263.859L973.365 270.531L978.305 277.661L982.623 285.216L986.276 293.167L988.316 298.672L990.025 304.33L1059.26 562.27L1061.14 570.893L1062.17 579.404L1062.36 587.755L1061.75 595.904L1060.36 603.81L1058.22 611.425L1055.36 618.702L1053.06 623.347L1050.47 627.813L1046.02 634.135L1040.95 639.977L1035.28 645.285L1029.03 650.015L1022.24 654.13L1014.93 657.575L1007.12 660.311L1001.66 661.717L996.001 662.777L736.533 702.371L727.801 703.27L719.093 703.313L710.455 702.546L701.941 700.992L693.595 698.691L685.471 695.674L677.618 691.968L672.555 689.137L667.648 686.023L660.619 680.854L654.021 675.111L647.915 668.833L642.347 662.051L637.362 654.794L633.015 647.101L629.35 639.005L627.309 633.397L625.613 627.638L557.629 367.134L555.812 358.503L554.863 349.991L554.756 341.652L555.464 333.517L556.953 325.643L559.199 318.068L562.172 310.829L564.537 306.221L567.208 301.791L571.756 295.531L576.93 289.76L582.7 284.524L589.038 279.867L595.918 275.836L603.306 272.466L611.178 269.808C611.178 269.808 616.684 268.453 622.376 267.441Z" stroke="url(#paint3_radial_129_447)" stroke-width="2" stroke-miterlimit="10" mask="url(#path-1-inside-1_129_447)"/>
<path d="M592.223 245.277L886.189 203.276L895.971 202.366L905.723 202.397L915.39 203.334L924.92 205.138L934.262 207.777L943.355 211.204L952.149 215.392L957.823 218.585L963.318 222.083L971.199 227.889L978.597 234.327L985.459 241.358L991.725 248.942L997.342 257.054L1002.26 265.645L1006.42 274.688L1008.74 280.949L1010.69 287.385L1089.6 580.929L1091.75 590.75L1092.92 600.445L1093.15 609.954L1092.46 619.237L1090.88 628.243L1088.45 636.916L1085.2 645.212L1082.59 650.504L1079.64 655.593L1074.59 662.798L1068.82 669.454L1062.37 675.505L1055.26 680.903L1047.53 685.592L1039.21 689.526L1030.33 692.646L1024.11 694.254L1017.67 695.466L722.083 740.792L712.129 741.818L702.196 741.878L692.352 741.007L682.642 739.244L673.127 736.622L663.867 733.185L654.911 728.967L649.141 725.738L643.548 722.191L635.535 716.3L628.02 709.753L621.059 702.597L614.712 694.861L609.031 686.59L604.076 677.818L599.904 668.585L597.585 662.193L595.651 655.625L518.361 358.752L516.296 348.924L515.223 339.234L515.11 329.731L515.923 320.472L517.63 311.505L520.195 302.879L523.586 294.644L526.29 289.393L529.336 284.354L534.523 277.228L540.424 270.661L547.006 264.702L554.23 259.405L562.072 254.817L570.493 250.986L579.466 247.966C579.466 247.966 585.735 246.422 592.223 245.277Z" stroke="url(#paint4_radial_129_447)" stroke-width="2" stroke-miterlimit="10" mask="url(#path-1-inside-1_129_447)"/>
<path d="M562.123 223.153L891.767 176.229L902.726 175.212L913.654 175.254L924.484 176.307L935.165 178.336L945.63 181.295L955.819 185.141L965.673 189.83L972.025 193.409L978.188 197.334L987.017 203.841L995.309 211.052L1003 218.93L1010.02 227.428L1016.31 236.512L1021.83 246.144L1026.49 256.271L1029.09 263.288L1031.28 270.492L1119.87 599.555L1122.29 610.569L1123.62 621.442L1123.87 632.115L1123.11 642.53L1121.35 652.631L1118.63 662.368L1114.99 671.673L1112.07 677.617L1108.76 683.324L1103.11 691.416L1096.65 698.889L1089.42 705.684L1081.45 711.745L1072.79 717.016L1063.46 721.434L1053.5 724.942L1046.53 726.75L1039.31 728.115L707.625 779.218L696.445 780.382L685.297 780.456L674.24 779.487L663.336 777.511L652.65 774.574L642.249 770.716L632.193 765.982L625.713 762.359L619.433 758.379L610.436 751.763L601.999 744.417L594.187 736.377L587.062 727.691L580.689 718.401L575.126 708.55L570.447 698.18L567.845 691.001L565.678 683.624L479.122 350.378L476.812 339.353L475.618 328.479L475.502 317.826L476.424 307.44L478.345 297.384L481.234 287.71L485.048 278.472L488.086 272.588L491.512 266.94L497.343 258.947L503.972 251.588L511.363 244.912L519.476 238.972L528.277 233.833L537.736 229.54L547.804 226.16C547.804 226.16 554.839 224.435 562.123 223.153Z" stroke="url(#paint5_radial_129_447)" stroke-width="2" stroke-miterlimit="10" mask="url(#path-1-inside-1_129_447)"/>
<path d="M532.072 201.061L897.325 149.266L909.458 148.148L921.556 148.201L933.55 149.374L945.376 151.621L956.96 154.901L968.243 159.161L979.151 164.357L986.185 168.321L993.004 172.667L1002.79 179.868L1011.96 187.853L1020.48 196.575L1028.25 205.987L1035.23 216.044L1041.33 226.703L1046.49 237.915L1049.38 245.679L1051.8 253.661L1150.09 618.138L1152.77 630.345L1154.25 642.396L1154.54 654.227L1153.7 665.772L1151.76 676.975L1148.76 687.771L1144.73 698.089L1141.5 704.68L1137.84 711.014L1131.58 719.988L1124.43 728.278L1116.43 735.82L1107.61 742.543L1098.01 748.393L1087.68 753.297L1076.65 757.198L1068.93 759.207L1060.92 760.724L693.165 817.659L680.76 818.959L668.387 819.049L656.116 817.979L644.019 815.794L632.167 812.544L620.625 808.267L609.466 803.017L602.279 799L595.309 794.586L585.327 787.246L575.968 779.096L567.3 770.173L559.397 760.537L552.328 750.229L546.165 739.298L540.975 727.791L538.093 719.819L535.693 711.633L439.915 342.011L437.366 329.788L436.048 317.741L435.928 305.928L436.959 294.421L439.103 283.277L442.317 272.555L446.558 262.323L449.931 255.802L453.733 249.545L460.208 240.694L467.565 232.542L475.768 225.144L484.772 218.572L494.537 212.88L505.025 208.131L516.193 204.385C516.193 204.385 523.997 202.478 532.072 201.061Z" stroke="url(#paint6_radial_129_447)" stroke-width="2" stroke-miterlimit="10" mask="url(#path-1-inside-1_129_447)"/>
<path d="M502.07 179.013L902.867 122.391L916.173 121.172L929.438 121.232L942.586 122.523L955.548 124.993L968.255 128.593L980.621 133.27L992.586 138.968L1000.3 143.317L1007.77 148.08L1018.5 155.978L1028.56 164.737L1037.9 174.298L1046.42 184.616L1054.07 195.641L1060.77 207.328L1066.43 219.62L1069.61 228.131L1072.26 236.877L1180.24 636.683L1183.19 650.083L1184.81 663.313L1185.15 676.297L1184.23 688.975L1182.11 701.276L1178.83 713.125L1174.42 724.462L1170.88 731.697L1166.87 738.654L1160.01 748.514L1152.17 757.621L1143.4 765.909L1133.73 773.299L1123.2 779.73L1111.87 785.126L1099.77 789.419L1091.29 791.633L1082.52 793.301L678.699 856.118L665.069 857.556L651.472 857.666L637.993 856.497L624.698 854.104L611.67 850.534L598.989 845.846L586.73 840.08L578.828 835.67L571.175 830.818L560.206 822.757L549.919 813.8L540.401 803.999L531.719 793.408L523.958 782.081L517.19 770.066L511.497 757.416L508.332 748.658L505.702 739.661L400.742 333.661L397.949 320.241L396.516 307.018L396.397 294.054L397.543 281.425L399.906 269.193L403.444 257.429L408.109 246.203L411.827 239.047L416.004 232.182L423.124 222.473L431.213 213.527L440.226 205.417L450.12 198.211L460.849 191.968L472.371 186.761L484.636 182.659C484.636 182.659 493.205 180.571 502.072 179.022L502.07 179.013Z" stroke="url(#paint7_radial_129_447)" stroke-width="2" stroke-miterlimit="10" mask="url(#path-1-inside-1_129_447)"/>
<path d="M472.123 157.001L908.393 95.5993L922.863 94.2764L937.29 94.3498L951.592 95.7621L965.692 98.4557L979.508 102.373L992.964 107.461L1005.97 113.668L1014.36 118.394L1022.49 123.577L1034.16 132.173L1045.1 141.693L1055.26 152.094L1064.54 163.318L1072.86 175.307L1080.14 188.014L1086.31 201.385L1089.76 210.64L1092.66 220.154L1210.33 655.19L1213.55 669.783L1215.32 684.186L1215.7 698.328L1214.71 712.134L1212.41 725.528L1208.84 738.439L1204.06 750.789L1200.21 758.671L1195.85 766.249L1188.39 776.99L1179.87 786.918L1170.33 795.947L1159.8 804.008L1148.36 811.019L1136.02 816.903L1122.85 821.587L1113.64 824.001L1104.07 825.826L664.228 894.569L649.372 896.144L634.552 896.275L619.855 895.013L605.364 892.412L591.164 888.531L577.338 883.423L563.976 877.145L555.364 872.338L547.02 867.054L535.066 858.268L523.857 848.507L513.483 837.823L504.027 826.281L495.57 813.931L488.201 800.831L481.996 787.041L478.556 777.494L475.692 767.679L361.599 325.301L358.571 310.687L357.018 296.284L356.897 282.174L358.157 268.423L360.744 255.108L364.612 242.299L369.705 230.079L373.758 222.295L378.32 214.823L386.085 204.256L394.903 194.523L404.73 185.703L415.519 177.859L427.213 171.072L439.765 165.414L453.126 160.951C453.126 160.951 462.465 158.682 472.123 157.001Z" stroke="url(#paint8_radial_129_447)" stroke-width="2" stroke-miterlimit="10" mask="url(#path-1-inside-1_129_447)"/>
<path d="M442.228 135.024L913.897 68.8878L929.532 67.4697L945.117 67.5566L960.57 69.0914L975.802 72.0048L990.728 76.2403L1005.26 81.7417L1019.32 88.4474L1028.38 93.5598L1037.16 99.1602L1049.76 108.445L1061.59 118.732L1072.56 129.968L1082.59 142.088L1091.58 155.043L1099.46 168.769L1106.12 183.207L1109.85 193.204L1112.98 203.479L1240.35 673.659L1243.85 689.44L1245.77 705.017L1246.19 720.316L1245.13 735.249L1242.65 749.741L1238.81 763.71L1233.64 777.071L1229.49 785.603L1224.79 793.807L1216.73 805.434L1207.53 816.177L1197.22 825.956L1185.85 834.683L1173.48 842.275L1160.15 848.649L1145.92 853.724L1135.95 856.342L1125.61 858.323L649.756 933.047L633.668 934.765L617.624 934.917L601.709 933.558L586.022 930.752L570.647 926.557L555.681 921.034L541.215 914.244L531.892 909.044L522.862 903.326L509.92 893.815L497.788 883.246L486.559 871.684L476.323 859.184L467.173 845.81L459.2 831.626L452.492 816.694L448.768 806.355L445.674 795.729L322.492 316.962L319.225 301.158L317.558 285.585L317.443 270.322L318.816 255.449L321.627 241.05L325.826 227.206L331.352 213.996L335.741 205.578L340.688 197.501L349.099 186.08L358.651 175.562L369.291 166.029L380.967 157.557L393.626 150.227L407.213 144.111L421.675 139.296C421.675 139.296 431.775 136.846 442.229 135.033L442.228 135.024Z" stroke="url(#paint9_radial_129_447)" stroke-width="2" stroke-miterlimit="10" mask="url(#path-1-inside-1_129_447)"/>
<path d="M412.379 113.084L919.385 42.2641L936.182 40.7516L952.921 40.8529L969.518 42.5022L985.879 45.6404L1001.91 50.1947L1017.52 56.1093L1032.61 63.3157L1042.35 68.8058L1051.78 74.8233L1065.32 84.7973L1078.02 95.8462L1089.81 107.914L1100.58 120.933L1110.24 134.843L1118.7 149.58L1125.87 165.09L1129.88 175.831L1133.25 186.86L1270.32 692.094L1274.08 709.059L1276.16 725.809L1276.61 742.257L1275.49 758.318L1272.84 773.901L1268.72 788.927L1263.18 803.301L1258.72 812.482L1253.67 821.308L1245.03 833.819L1235.14 845.382L1224.06 855.906L1211.85 865.302L1198.56 873.479L1184.24 880.347L1168.95 885.817L1158.23 888.64L1147.13 890.775L635.277 971.527L617.964 973.391L600.688 973.564L583.561 972.112L566.672 969.099L550.121 964.588L534.011 958.651L518.441 951.345L508.407 945.747L498.681 939.593L484.754 929.357L471.696 917.986L459.615 905.536L448.6 892.081L438.757 877.683L430.179 862.411L422.967 846.337L418.964 835.205L415.64 823.765L283.412 308.605L279.907 291.611L278.129 274.861L278.016 258.452L279.51 242.464L282.549 226.986L287.079 212.102L293.033 197.902L297.768 188.859L303.096 180.176L312.152 167.905L322.438 156.603L333.898 146.36L346.466 137.259L360.089 129.381L374.706 122.818L390.267 117.651C390.267 117.651 401.137 115.024 412.378 113.075L412.379 113.084Z" stroke="url(#paint10_radial_129_447)" stroke-width="2" stroke-miterlimit="10" mask="url(#path-1-inside-1_129_447)"/>
<path d="M382.583 91.1833L924.861 15.7233L942.81 14.1135L960.702 14.2291L978.437 16.0032L995.921 19.3628L1013.05 24.2365L1029.73 30.5608L1045.87 38.2679L1056.27 44.1357L1066.35 50.5668L1080.82 61.2269L1094.4 73.0385L1107 85.9337L1118.51 99.8463L1128.84 114.709L1137.89 130.461L1145.55 147.034L1149.84 158.508L1153.44 170.298L1300.22 710.486L1304.26 728.634L1306.49 746.557L1306.98 764.158L1305.79 781.346L1302.97 798.026L1298.57 814.109L1292.66 829.498L1287.9 839.325L1282.52 848.771L1273.27 862.167L1262.71 874.549L1250.88 885.817L1237.82 895.883L1223.61 904.644L1208.3 912.006L1191.95 917.87L1180.49 920.901L1168.61 923.197L620.796 1010.02L602.25 1012.03L583.75 1012.23L565.402 1010.69L547.312 1007.47L529.587 1002.65L512.332 996.296L495.655 988.479L484.906 982.489L474.494 975.901L459.578 964.941L445.597 952.762L432.66 939.429L420.87 925.015L410.33 909.595L401.152 893.238L393.436 876.016L389.157 864.092L385.602 851.833L244.369 300.281L240.63 282.097L238.74 264.18L238.633 246.623L240.246 229.521L243.515 212.963L248.376 197.044L254.768 181.856L259.843 172.179L265.552 162.9L275.263 149.774L286.284 137.692L298.555 126.744L312.018 117.014L326.608 108.602L342.26 101.586L358.918 96.0669C358.918 96.0669 370.549 93.26 382.583 91.1833Z" stroke="url(#paint11_radial_129_447)" stroke-width="2" stroke-miterlimit="10" mask="url(#path-1-inside-1_129_447)"/>
<path d="M352.838 69.3231L930.315 -10.7376L949.412 -12.4395L968.455 -12.3044L987.327 -10.4099L1005.93 -6.83257L1024.16 -1.63507L1041.91 5.09967L1059.07 13.2995L1070.14 19.5466L1080.88 26.3905L1096.27 37.7366L1110.72 50.3074L1124.13 64.0262L1136.38 78.8285L1147.38 94.6427L1157.01 111.403L1165.17 129.038L1169.74 141.242L1173.57 153.787L1330.06 728.84L1334.37 748.176L1336.76 767.267L1337.3 786.02L1336.04 804.33L1333.05 822.103L1328.38 839.237L1322.1 855.637L1317.04 866.113L1311.3 876.185L1301.48 890.469L1290.24 903.67L1277.65 915.691L1263.76 926.424L1248.63 935.77L1232.33 943.626L1214.92 949.888L1202.72 953.127L1190.07 955.578L606.312 1048.53L586.534 1050.69L566.802 1050.91L547.238 1049.28L527.948 1045.86L509.042 1040.73L490.644 1033.96L472.858 1025.63L461.399 1019.25L450.295 1012.22L434.391 1000.54L419.482 987.55L405.689 973.33L393.12 957.961L381.891 941.512L372.111 924.067L363.887 905.699L359.333 892.982L355.548 879.908L205.354 291.957L201.385 272.582L199.385 253.498L199.29 234.796L201.023 216.58L204.522 198.946L209.718 181.991L216.544 165.817L221.965 155.519L228.056 145.634L238.418 131.662L250.174 118.804L263.264 107.147L277.62 96.7918L293.175 87.8406L309.859 80.3816L327.615 74.5106C327.615 74.5106 340.016 71.5265 352.838 69.3231Z" stroke="url(#paint12_radial_129_447)" stroke-width="2" stroke-miterlimit="10" mask="url(#path-1-inside-1_129_447)"/>
<path d="M323.143 47.4942L935.754 -37.1105L955.999 -38.9047L976.182 -38.7572L996.186 -36.7415L1015.91 -32.9377L1035.23 -27.4235L1054.05 -20.2827L1072.24 -11.585L1083.98 -4.95934L1095.35 2.29958L1111.67 14.3274L1126.99 27.6486L1141.2 42.1919L1154.19 57.8838L1165.85 74.6457L1176.07 92.4086L1184.72 111.094L1189.57 124.032L1193.64 137.329L1359.84 747.155L1364.42 767.671L1366.97 787.93L1367.55 807.831L1366.23 827.267L1363.07 846.135L1358.13 864.326L1351.48 881.736L1346.12 892.857L1340.05 903.553L1329.64 918.721L1317.73 932.744L1304.38 945.514L1289.65 956.92L1273.61 966.853L1256.33 975.202L1237.86 981.862L1224.93 985.309L1211.51 987.923L591.821 1087.05L570.812 1089.36L549.853 1089.61L529.063 1087.89L508.572 1084.26L488.492 1078.82L468.944 1071.64L450.047 1062.8L437.876 1056.02L426.083 1048.56L409.189 1036.15L393.357 1022.36L378.708 1007.26L365.36 990.928L353.439 973.455L343.053 954.921L334.333 935.401L329.498 921.887L325.488 907.998L166.376 283.644L162.175 263.087L160.07 242.83L159.981 222.985L161.84 203.659L165.573 184.948L171.106 166.966L178.367 149.81L184.128 138.882L190.609 128.4L201.623 113.582L214.118 99.9427L228.024 87.5849L243.273 76.6097L259.794 67.1195L277.514 59.2122L296.368 52.9936C296.368 52.9936 309.531 49.8381 323.145 47.5029L323.143 47.4942Z" stroke="url(#paint13_radial_129_447)" stroke-width="2" stroke-miterlimit="10" mask="url(#path-1-inside-1_129_447)"/>
<path d="M293.501 25.7054L941.171 -63.4035L962.565 -65.2898L983.884 -65.1249L1005.02 -62.9837L1025.85 -58.9605L1046.27 -53.1297L1066.14 -45.5769L1085.36 -36.3857L1097.76 -29.3843L1109.78 -21.7162L1127.01 -9.00948L1143.2 5.06659L1158.22 20.4299L1171.95 37.0035L1184.27 54.7139L1195.06 73.4755L1204.21 93.2148L1209.34 106.879L1213.64 120.921L1389.56 765.437L1394.41 787.132L1397.12 808.558L1397.74 829.606L1396.36 850.165L1393.04 870.124L1387.83 889.37L1380.81 907.791L1375.16 919.56L1368.74 930.877L1357.75 946.931L1345.17 961.772L1331.07 975.29L1315.51 987.368L1298.57 997.887L1280.3 1006.73L1260.78 1013.79L1247.1 1017.45L1232.92 1020.22L577.327 1125.58L555.081 1128.03L532.892 1128.32L510.886 1126.5L489.185 1122.68L467.925 1116.93L447.23 1109.33L427.229 1099.98L414.339 1092.81L401.854 1084.91L383.972 1071.78L367.212 1057.17L351.706 1041.18L337.583 1023.9L324.968 1005.4L313.985 985.768L304.756 965.103L299.645 950.791L295.409 936.082L127.423 275.317L122.997 253.574L120.783 232.153L120.708 211.168L122.691 190.731L126.659 170.949L132.528 151.935L140.228 133.796L146.34 122.246L153.203 111.167L164.868 95.5029L178.105 81.0917L192.831 68.0326L208.973 56.4373L226.459 46.4081L245.217 38.061L265.164 31.4956C265.164 31.4956 279.094 28.1637 293.5 25.701L293.501 25.7054Z" stroke="url(#paint14_radial_129_447)" stroke-width="2" stroke-miterlimit="10" mask="url(#path-1-inside-1_129_447)"/>
<path d="M263.909 3.95219L946.576 -89.618L969.109 -91.5906L991.565 -91.4039L1013.83 -89.1443L1035.76 -84.8968L1057.26 -78.7485L1078.19 -70.788L1098.44 -61.1025L1111.5 -53.7262L1124.15 -45.6473L1142.31 -32.2617L1159.36 -17.4388L1175.18 -1.25899L1189.64 16.1963L1202.62 34.8465L1213.99 54.6024L1223.64 75.3913L1229.04 89.7809L1233.58 104.566L1419.21 783.68L1424.34 806.554L1427.21 829.147L1427.88 851.342L1426.44 873.023L1422.95 894.073L1417.48 914.374L1410.09 933.805L1404.14 946.218L1397.4 958.158L1385.82 975.096L1372.57 990.759L1357.72 1005.03L1341.33 1017.78L1323.48 1028.88L1304.23 1038.23L1283.66 1045.68L1269.25 1049.54L1254.31 1052.47L562.828 1164.1L539.347 1166.71L515.922 1167.03L492.692 1165.13L469.791 1161.11L447.348 1155.05L425.504 1147.04L404.395 1137.17L390.79 1129.61L377.615 1121.28L358.739 1107.42L341.056 1092.01L324.694 1075.13L309.795 1056.89L296.482 1037.35L284.897 1016.63L275.173 994.814L269.785 979.705L265.318 964.177L88.5051 267.016L83.8514 244.09L81.5339 221.506L81.4748 199.38L83.5833 177.832L87.7859 156.978L94.0007 136.935L102.136 117.818L108.594 105.646L115.849 93.9694L128.171 77.4676L142.143 62.2807L157.689 48.5203L174.729 36.3084L193.183 25.7489L212.973 16.9586L234.019 10.0456C234.019 10.0456 248.715 6.54157 263.909 3.95219Z" stroke="url(#paint15_radial_129_447)" stroke-width="2" stroke-miterlimit="10" mask="url(#path-1-inside-1_129_447)"/>
<path d="M234.365 -17.7645L951.963 -115.749L975.632 -117.811L999.221 -117.602L1022.6 -115.219L1045.64 -110.747L1068.23 -104.285L1090.21 -95.916L1111.48 -85.7398L1125.19 -77.9913L1138.48 -69.5024L1157.55 -55.4415L1175.47 -39.8717L1192.08 -22.8754L1207.27 -4.54201L1220.91 15.0437L1232.87 35.7938L1243 57.6244L1248.68 72.7355L1253.46 88.2666L1448.81 801.885L1454.21 825.936L1457.23 849.694L1457.96 873.036L1456.46 895.838L1452.81 917.979L1447.07 939.334L1439.32 959.779L1433.08 972.839L1426 985.404L1413.85 1003.23L1399.94 1019.71L1384.34 1034.73L1367.12 1048.15L1348.36 1059.85L1328.14 1069.69L1306.53 1077.55L1291.38 1081.62L1275.67 1084.71L548.328 1202.67L523.61 1205.43L498.956 1205.78L474.501 1203.8L450.392 1199.58L426.77 1193.21L403.777 1184.79L381.552 1174.41L367.236 1166.45L353.365 1157.69L333.5 1143.11L314.89 1126.89L297.672 1109.12L281.993 1089.91L267.99 1069.35L255.807 1047.54L245.578 1024.57L239.915 1008.66L235.226 992.312L49.6196 258.718L44.7421 234.609L42.325 210.86L42.279 187.599L44.5177 164.943L48.9561 143.021L55.5121 121.95L64.0914 101.854L70.8963 89.0612L78.537 76.787L91.5167 59.4472L106.229 43.4881L122.597 29.0351L140.531 16.2031L159.952 5.11327L180.778 -4.11676L202.924 -11.3729C202.924 -11.3729 218.382 -15.0484 234.365 -17.7645Z" stroke="url(#paint16_radial_129_447)" stroke-width="2" stroke-miterlimit="10" mask="url(#path-1-inside-1_129_447)"/>
<path d="M204.872 -39.441L957.334 -141.796L982.134 -143.948L1006.85 -143.72L1031.35 -141.208L1055.49 -136.516L1079.15 -129.734L1102.19 -120.961L1124.47 -110.293L1138.83 -102.173L1152.77 -93.2773L1172.75 -78.5418L1191.52 -62.2279L1208.93 -44.4187L1224.85 -25.2123L1239.15 -4.69473L1251.67 17.0462L1262.3 39.9133L1268.26 55.7493L1273.27 72.019L1478.34 820.052L1484.02 845.277L1487.21 870.197L1487.98 894.681L1486.43 918.604L1482.61 941.831L1476.61 964.236L1468.51 985.69L1461.97 999.398L1454.55 1012.59L1441.83 1031.3L1427.25 1048.6L1410.91 1064.37L1392.87 1078.47L1373.21 1090.76L1352.02 1101.1L1329.35 1109.36L1313.48 1113.64L1297 1116.9L533.822 1241.23L507.865 1244.15L481.975 1244.53L456.296 1242.46L430.983 1238.05L406.178 1231.38L382.032 1222.54L358.695 1211.66L343.665 1203.3L329.103 1194.1L308.244 1178.79L288.706 1161.76L270.631 1143.11L254.175 1122.93L239.479 1101.34L226.694 1078.43L215.968 1054.31L210.028 1037.6L205.111 1020.43L10.7624 250.428L5.66549 225.135L3.14521 200.227L3.11589 175.825L5.48981 152.066L10.1683 129.076L17.0663 106.981L26.0904 85.9097L33.2417 72.4952L41.2748 59.6316L54.9067 41.4503L70.3646 24.7225L87.5551 9.5769L106.387 -3.87166L126.776 -15.4874L148.631 -25.1556L171.875 -32.755C171.875 -32.755 188.096 -36.6018 204.872 -39.441Z" stroke="url(#paint17_radial_129_447)" stroke-width="2" stroke-miterlimit="10" mask="url(#path-1-inside-1_129_447)"/>
<path d="M175.43 -61.082L962.688 -167.765L988.615 -170L1014.46 -169.748L1040.07 -167.116L1065.31 -162.202L1090.04 -155.106L1114.12 -145.927L1137.42 -134.767L1152.44 -126.275L1167 -116.973L1187.89 -101.565L1207.52 -84.5074L1225.72 -65.8948L1242.37 -45.8138L1257.32 -24.3644L1270.43 -1.64221L1281.54 22.2623L1287.77 38.8117L1293.02 55.8184L1507.82 838.179L1513.77 864.579L1517.12 890.662L1517.95 916.288L1516.33 941.327L1512.36 965.643L1506.1 989.103L1497.64 1011.57L1490.81 1025.92L1483.06 1039.73L1469.76 1059.33L1454.53 1077.46L1437.44 1093.98L1418.58 1108.75L1398.03 1121.63L1375.86 1132.47L1352.15 1141.14L1335.54 1145.63L1318.32 1149.05L519.31 1279.8L492.117 1282.88L464.989 1283.3L438.086 1281.15L411.564 1276.54L385.576 1269.56L360.278 1260.32L335.829 1248.92L320.079 1240.17L304.826 1230.54L282.979 1214.51L262.509 1196.67L243.582 1177.13L226.346 1155.99L210.96 1133.36L197.576 1109.36L186.345 1084.07L180.133 1066.57L174.994 1048.57L-28.0586 242.141L-33.3785 215.669L-35.9932 189.6L-36 164.065L-33.4959 139.199L-28.5767 115.145L-21.3314 92.0293L-11.8625 69.9835L-4.36407 55.9518L4.0607 42.4945L18.3549 23.4787L34.5543 5.98308L52.5624 -9.85432L72.2929 -23.9151L93.6493 -36.0612L116.542 -46.1647L140.882 -54.1022C140.882 -54.1022 157.869 -58.1212 175.434 -61.0827L175.43 -61.082Z" stroke="url(#paint18_radial_129_447)" stroke-width="2" stroke-miterlimit="10" mask="url(#path-1-inside-1_129_447)"/>
</g>
</g>
<defs>
<radialGradient id="paint0_radial_129_447" cx="0" cy="0" r="1" gradientUnits="userSpaceOnUse" gradientTransform="translate(812.321 432.616) rotate(-8.27228) scale(569.93 957.128)">
<stop stop-color="#2F2F51"/>
<stop offset="1" stop-color="#1A1A2C"/>
</radialGradient>
<radialGradient id="paint1_radial_129_447" cx="0" cy="0" r="1" gradientUnits="userSpaceOnUse" gradientTransform="translate(812.321 432.616) rotate(-8.27228) scale(569.93 957.128)">
<stop stop-color="#2F2F51"/>
<stop offset="1" stop-color="#1A1A2C"/>
</radialGradient>
<radialGradient id="paint2_radial_129_447" cx="0" cy="0" r="1" gradientUnits="userSpaceOnUse" gradientTransform="translate(812.321 432.616) rotate(-8.27228) scale(569.93 957.128)">
<stop stop-color="#2F2F51"/>
<stop offset="1" stop-color="#1A1A2C"/>
</radialGradient>
<radialGradient id="paint3_radial_129_447" cx="0" cy="0" r="1" gradientUnits="userSpaceOnUse" gradientTransform="translate(812.321 432.616) rotate(-8.27228) scale(569.93 957.128)">
<stop stop-color="#2F2F51"/>
<stop offset="1" stop-color="#1A1A2C"/>
</radialGradient>
<radialGradient id="paint4_radial_129_447" cx="0" cy="0" r="1" gradientUnits="userSpaceOnUse" gradientTransform="translate(812.321 432.616) rotate(-8.27228) scale(569.93 957.128)">
<stop stop-color="#2F2F51"/>
<stop offset="1" stop-color="#1A1A2C"/>
</radialGradient>
<radialGradient id="paint5_radial_129_447" cx="0" cy="0" r="1" gradientUnits="userSpaceOnUse" gradientTransform="translate(812.321 432.616) rotate(-8.27228) scale(569.93 957.128)">
<stop stop-color="#2F2F51"/>
<stop offset="1" stop-color="#1A1A2C"/>
</radialGradient>
<radialGradient id="paint6_radial_129_447" cx="0" cy="0" r="1" gradientUnits="userSpaceOnUse" gradientTransform="translate(812.321 432.616) rotate(-8.27228) scale(569.93 957.128)">
<stop stop-color="#2F2F51"/>
<stop offset="1" stop-color="#1A1A2C"/>
</radialGradient>
<radialGradient id="paint7_radial_129_447" cx="0" cy="0" r="1" gradientUnits="userSpaceOnUse" gradientTransform="translate(812.321 432.616) rotate(-8.27228) scale(569.93 957.128)">
<stop stop-color="#2F2F51"/>
<stop offset="1" stop-color="#1A1A2C"/>
</radialGradient>
<radialGradient id="paint8_radial_129_447" cx="0" cy="0" r="1" gradientUnits="userSpaceOnUse" gradientTransform="translate(812.321 432.616) rotate(-8.27228) scale(569.93 957.128)">
<stop stop-color="#2F2F51"/>
<stop offset="1" stop-color="#1A1A2C"/>
</radialGradient>
<radialGradient id="paint9_radial_129_447" cx="0" cy="0" r="1" gradientUnits="userSpaceOnUse" gradientTransform="translate(812.321 432.616) rotate(-8.27228) scale(569.93 957.128)">
<stop stop-color="#2F2F51"/>
<stop offset="1" stop-color="#1A1A2C"/>
</radialGradient>
<radialGradient id="paint10_radial_129_447" cx="0" cy="0" r="1" gradientUnits="userSpaceOnUse" gradientTransform="translate(812.321 432.616) rotate(-8.27228) scale(569.93 957.128)">
<stop stop-color="#2F2F51"/>
<stop offset="1" stop-color="#1A1A2C"/>
</radialGradient>
<radialGradient id="paint11_radial_129_447" cx="0" cy="0" r="1" gradientUnits="userSpaceOnUse" gradientTransform="translate(812.321 432.616) rotate(-8.27228) scale(569.93 957.128)">
<stop stop-color="#2F2F51"/>
<stop offset="1" stop-color="#1A1A2C"/>
</radialGradient>
<radialGradient id="paint12_radial_129_447" cx="0" cy="0" r="1" gradientUnits="userSpaceOnUse" gradientTransform="translate(812.321 432.616) rotate(-8.27228) scale(569.93 957.128)">
<stop stop-color="#2F2F51"/>
<stop offset="1" stop-color="#1A1A2C"/>
</radialGradient>
<radialGradient id="paint13_radial_129_447" cx="0" cy="0" r="1" gradientUnits="userSpaceOnUse" gradientTransform="translate(812.321 432.616) rotate(-8.27228) scale(569.93 957.128)">
<stop stop-color="#2F2F51"/>
<stop offset="1" stop-color="#1A1A2C"/>
</radialGradient>
<radialGradient id="paint14_radial_129_447" cx="0" cy="0" r="1" gradientUnits="userSpaceOnUse" gradientTransform="translate(812.321 432.616) rotate(-8.27228) scale(569.93 957.128)">
<stop stop-color="#2F2F51"/>
<stop offset="1" stop-color="#1A1A2C"/>
</radialGradient>
<radialGradient id="paint15_radial_129_447" cx="0" cy="0" r="1" gradientUnits="userSpaceOnUse" gradientTransform="translate(812.321 432.616) rotate(-8.27228) scale(569.93 957.128)">
<stop stop-color="#2F2F51"/>
<stop offset="1" stop-color="#1A1A2C"/>
</radialGradient>
<radialGradient id="paint16_radial_129_447" cx="0" cy="0" r="1" gradientUnits="userSpaceOnUse" gradientTransform="translate(812.321 432.616) rotate(-8.27228) scale(569.93 957.128)">
<stop stop-color="#2F2F51"/>
<stop offset="1" stop-color="#1A1A2C"/>
</radialGradient>
<radialGradient id="paint17_radial_129_447" cx="0" cy="0" r="1" gradientUnits="userSpaceOnUse" gradientTransform="translate(812.321 432.616) rotate(-8.27228) scale(569.93 957.128)">
<stop stop-color="#2F2F51"/>
<stop offset="1" stop-color="#1A1A2C"/>
</radialGradient>
<radialGradient id="paint18_radial_129_447" cx="0" cy="0" r="1" gradientUnits="userSpaceOnUse" gradientTransform="translate(812.321 432.616) rotate(-8.27228) scale(569.93 957.128)">
<stop stop-color="#2F2F51"/>
<stop offset="1" stop-color="#1A1A2C"/>
</radialGradient>
<clipPath id="clip0_129_447">
<rect width="1512" height="982" fill="white"/>
</clipPath>
</defs>
</svg>
